HIERARCHY
ROOT Hips
{
  OFFSET 155.048 98.1286 3.93448
  CHANNELS 6 Xposition Yposition Zposition Zrotation Xrotation Yrotation
  JOINT RightUpLeg
  {
    OFFSET -8.9458 -8.66707 0.101652
    CHANNELS 3 Zrotation Xrotation Yrotation
    JOINT RightLeg
    {
      OFFSET 0 -44.4227 1.3727
      CHANNELS 3 Zrotation Xrotation Yrotation
      JOINT RightFoot
      {
        OFFSET 0.253549 -42.0924 -1.46059
        CHANNELS 3 Zrotation Xrotation Yrotation
        JOINT RightToes
        {
          OFFSET 0.04 -4.41509 8.4991
          CHANNELS 3 Zrotation Xrotation Yrotation
          End Site
          {
            OFFSET -0.08 -0.137448 9.77979
          }
        }
      }
    }
  }
  JOINT Spine
  {
    OFFSET 0 11.8905 0
    CHANNELS 3 Zrotation Xrotation Yrotation
    JOINT Spine1
    {
      OFFSET 0 25.6574 0.127663
      CHANNELS 3 Zrotation Xrotation Yrotation
      JOINT Head
      {
        OFFSET 0 8.73416 0.011341
        CHANNELS 3 Zrotation Xrotation Yrotation
        End Site
        {
          OFFSET -0.29 12.7742 2.51395
        }
      }
      JOINT LeftShoulder1
      {
        OFFSET 8.99 -0.362252 -0.22
        CHANNELS 3 Zrotation Xrotation Yrotation
        JOINT LeftArm
        {
          OFFSET 10.2827 -0.00337999 0.322123
          CHANNELS 3 Zrotation Xrotation Yrotation
          JOINT LeftForeArm
          {
            OFFSET 26.2597 0.099144 -1.42434
            CHANNELS 3 Zrotation Xrotation Yrotation
            JOINT LeftHand
            {
              OFFSET 22.0902 0.085362 1.02216
              CHANNELS 3 Zrotation Xrotation Yrotation
              End Site
              {
                OFFSET 13.419 -0.6 1.50291
              }
            }
          }
        }
      }
      JOINT RightShoulder
      {
        OFFSET -8.99 -0.362252 -0.22
        CHANNELS 3 Zrotation Xrotation Yrotation
        JOINT RightArm
        {
          OFFSET -10.2827 -0.00338 0.322123
          CHANNELS 3 Zrotation Xrotation Yrotation
          JOINT RightForeArm
          {
            OFFSET -26.364 0.099144 -1.42434
            CHANNELS 3 Zrotation Xrotation Yrotation
            JOINT RightHand
            {
              OFFSET -22.0324 0.085362 1.02216
              CHANNELS 3 Zrotation Xrotation Yrotation
              End Site
              {
                OFFSET -13.3284 -0.6 1.50291
              }
            }
          }
        }
      }
    }
  }
  JOINT LeftUpLeg
  {
    OFFSET 8.9458 -8.66707 0.101652
    CHANNELS 3 Zrotation Xrotation Yrotation
    JOINT LeftLeg
    {
      OFFSET 0 -44.4227 1.3727
      CHANNELS 3 Zrotation Xrotation Yrotation
      JOINT LeftFoot
      {
        OFFSET -0.253549 -42.0924 -1.46059
        CHANNELS 3 Zrotation Xrotation Yrotation
        JOINT LeftToes
        {
          OFFSET -0.04 -4.41509 8.4991
          CHANNELS 3 Zrotation Xrotation Yrotation
          End Site
          {
            OFFSET 0.08 -0.047448 9.77979
          }
        }
      }
    }
  }
}
MOTION
Frames:	19
Frame Time:	0.0333333
170.9 99.9076 9.70516 -6.60377 -0.0747049 -93.0449 -2.5851 4.25498 -7.53585 -2.25983 12.6231 -6.35805 4.52248 -8.61119 -0.142837 0.0462048 0.000530889 0.662642 5.37011 -13.489 2.54717 -6.26882 30.4364 4.35897 0.0199332 -6.13747 0.102784 -39.2556 9.27699 -16.7252 -48.1226 -42.9139 -19.3897 -18.3383 37.1302 6.08569 21.505 8.83963 -0.447529 50.752 13.8678 19.7409 21.7456 -44.1206 3.44447 8.9779 34.4777 1.75178 -5.55379 9.49749 4.20027 0.634227 4.66919 6.53909 1.93029 12.13 14.7903 -4.85705 -7.91281 0.0134729 -1.34803e-009 8.75207e-006 -1.4617e-008 
170.897 99.9076 9.70483 -6.43241 -0.103284 -92.9468 -2.59632 4.05777 -7.51587 -2.24483 12.6713 -6.48819 4.52381 -8.62014 -0.14284 0.0462048 0.000530889 0.662642 5.15665 -13.3509 2.51203 -5.96434 30.223 4.22251 -0.152262 -6.19415 -0.214952 -39.3934 9.31758 -16.749 -47.6937 -44.9697 -18.156 -17.8108 36.1152 6.79613 21.9966 9.01722 0.653349 50.6852 13.8261 19.7014 21.3233 -44.0277 1.73091 9.07172 35.117 1.22778 -5.70199 9.4997 4.01051 0.624617 4.44998 6.47956 1.93495 12.1696 14.7462 -4.84689 -7.9135 0.0134729 -1.34803e-009 8.75207e-006 -1.4617e-008 
170.863 99.9076 9.70032 -6.16497 -0.123813 -92.7247 -2.57877 3.80677 -7.48331 -2.21175 12.6994 -6.76236 4.55649 -8.63633 -0.142847 0.0462048 0.000530889 0.662642 4.89576 -13.1574 2.34678 -5.63926 29.9339 3.94872 -0.333939 -6.48808 -0.546967 -39.5009 9.3064 -16.6758 -46.1433 -47.4132 -15.382 -16.7768 34.6335 7.76096 22.8686 9.18799 1.75407 50.6953 13.8199 19.6864 20.4023 -43.7957 -1.48686 9.28797 35.5169 0.40695 -5.87165 9.50481 3.66618 0.640595 4.10282 6.40276 1.96007 12.2682 14.6004 -4.84199 -7.93457 0.0134736 -1.34803e-009 8.75207e-006 -1.4617e-008 
170.765 99.9076 9.68316 -6.08654 -0.0501614 -92.4235 -2.44145 3.92609 -7.47274 -2.17822 12.5174 -7.08679 4.59084 -8.61929 -0.14284 0.0462048 0.000530889 0.662642 4.84427 -13.0724 2.14415 -5.61781 30.1335 3.74708 -0.147938 -7.27634 -0.23162 -39.1952 9.1378 -16.4539 -44.5089 -49.0086 -12.7108 -16.473 35.2195 9.14013 23.2701 9.07674 1.24005 50.6369 13.7589 19.6106 19.7892 -43.8315 -4.54839 9.27163 33.8876 0.0374415 -5.84778 9.51385 3.47701 0.770394 3.9874 6.42925 2.01076 12.3911 14.221 -4.88729 -8.02396 0.0134766 -1.34803e-009 8.75207e-006 -1.4617e-008 
170.647 99.9076 9.65794 -6.19899 0.0915732 -92.2396 -2.22446 4.30715 -7.44318 -2.1757 12.2184 -7.30278 4.58978 -8.5659 -0.14282 0.0462048 0.000530889 0.662642 4.8489 -12.9215 1.98795 -5.53946 30.4321 3.55988 0.228047 -7.98409 0.711424 -38.9408 9.00094 -16.274 -42.3893 -49.5488 -9.87642 -17.1133 37.0908 10.2108 23.0391 8.8005 -0.236349 50.5 13.6693 19.5219 19.2537 -44.1773 -7.14739 8.98796 30.9937 0.167999 -5.69842 9.52757 3.42116 0.979855 4.12366 6.57126 2.03972 12.491 13.816 -4.95373 -8.14362 0.0134367 -1.34803e-009 8.75207e-006 -1.4617e-008 
170.582 99.9076 9.64189 -6.21983 0.188035 -92.3672 -2.0995 4.40426 -7.34871 -2.2148 12.1169 -7.26987 4.56969 -8.53831 -0.14281 0.0462048 0.000530889 0.662642 4.87291 -12.7528 1.98767 -5.49896 30.5581 3.53986 0.485482 -8.05917 1.18011 -38.8043 8.93878 -16.2008 -39.873 -49.5766 -6.57893 -17.6831 38.3056 10.1737 22.6166 8.67969 -0.982625 50.367 13.5885 19.4458 18.6815 -44.4811 -9.33963 8.67999 29.7623 0.424624 -5.5485 9.54677 3.22321 1.10699 4.19671 6.70495 1.99638 12.5263 13.8018 -4.97074 -8.21288 0.0133347 -1.34803e-009 8.75207e-006 -1.4617e-008 
170.56 99.9076 9.64665 -6.02416 0.170685 -92.6923 -2.14473 4.08533 -7.25471 -2.25499 12.2548 -7.0447 4.55904 -8.57151 -0.142822 0.0462048 0.000530889 0.662642 4.91303 -12.6572 2.0931 -5.62724 30.4404 3.69566 0.528867 -7.50714 0.624374 -38.6154 8.87212 -16.1408 -37.596 -49.6733 -3.29947 -17.6376 38.3616 9.40542 22.3128 8.77603 -0.561681 50.3106 13.5347 19.3803 18.1121 -44.4274 -11.1648 8.53961 31.356 0.499509 -5.37226 9.57102 2.92881 1.07038 4.06495 6.72154 1.91652 12.4798 14.1803 -4.94292 -8.21136 0.0133297 -1.34803e-009 8.75207e-006 -1.4617e-008 
170.514 99.9076 9.66829 -5.8064 0.107142 -92.9153 -2.26087 3.79781 -7.27392 -2.24849 12.3438 -6.81288 4.54762 -8.6155 -0.142839 0.0462048 0.000530889 0.662642 4.90225 -12.6647 2.15753 -5.72182 30.306 3.80812 0.529022 -6.86185 -0.0665811 -38.315 8.7492 -16.0071 -36.2799 -49.9136 -1.09779 -17.4299 38.1504 9.02327 22.2248 8.87897 -0.0321898 50.2397 13.468 19.2993 17.7401 -44.1989 -12.3907 8.55682 33.6374 0.310641 -5.1676 9.58627 2.91442 0.956004 3.93445 6.63837 1.8899 12.3706 14.5314 -4.94096 -8.1869 0.0134037 -1.34803e-009 8.75207e-006 -1.4617e-008 
170.451 99.9076 9.69603 -5.74359 0.0895321 -92.9809 -2.32762 3.80481 -7.37565 -2.21519 12.2561 -6.64907 4.52533 -8.6131 -0.142838 0.0462048 0.000530889 0.662642 4.79963 -12.6664 2.12685 -5.55149 30.329 3.73051 0.629624 -6.534 0.0974229 -38.0917 8.62778 -15.8401 -35.9449 -50.1753 -0.301707 -17.3679 38.1973 9.28651 22.2743 8.87558 -0.0373047 50.0681 13.3746 19.2179 17.6299 -44.1559 -12.8196 8.63619 34.334 -0.139204 -5.05717 9.58646 3.15005 0.874954 3.96055 6.54782 1.93407 12.2666 14.6735 -4.98253 -8.17452 0.0135384 -1.34803e-009 8.75207e-006 -1.4617e-008 
170.446 99.9075 9.71902 -5.77594 0.130301 -93.0861 -2.31328 3.87324 -7.38907 -2.21689 12.1681 -6.52042 4.51721 -8.56979 -0.142821 0.0462048 0.000530889 0.662642 4.70858 -12.5049 2.08464 -5.28653 30.3853 3.59476 0.812442 -6.50704 0.860286 -38.082 8.58477 -15.7493 -36.0054 -50.381 -0.280042 -17.3328 38.2943 9.60949 22.3897 8.85737 -0.10517 49.9034 13.3109 19.1832 17.6748 -44.3177 -12.5219 8.70801 33.7414 -0.691 -5.08552 9.58612 3.19869 0.863825 4.01367 6.52874 1.97463 12.266 14.8134 -5.01158 -8.17997 0.0137145 -1.34803e-009 8.75207e-006 -1.4617e-008 
170.502 99.9072 9.72939 -5.82094 0.218833 -93.2652 -2.22337 3.86747 -7.27193 -2.25538 12.1545 -6.44921 4.53118 -8.5123 -0.1428 0.0462048 0.000530889 0.662642 4.74573 -12.15 2.08637 -5.21548 30.2955 3.55534 0.955616 -6.53237 1.31846 -38.1835 8.61894 -15.7795 -36.159 -50.4499 -0.584873 -17.2923 38.3478 9.69279 22.532 8.89187 0.115261 49.8905 13.3148 19.1956 17.7907 -44.4512 -11.7381 8.77147 33.4176 -1.02681 -5.14466 9.58544 3.06157 0.939523 3.99308 6.61377 1.96204 12.3986 14.9768 -5.00011 -8.21821 0.0139128 -1.34803e-009 8.75207e-006 -1.4617e-008 
170.54 99.9069 9.7313 -5.89227 0.336222 -93.3211 -2.08964 3.95445 -7.1719 -2.26475 12.0778 -6.50003 4.53159 -8.44675 -0.142776 0.0462048 0.000530889 0.662642 4.84957 -11.8005 2.06772 -5.282 30.1445 3.5391 0.993529 -6.41641 1.25981 -38.2579 8.67369 -15.8668 -36.6777 -50.3142 -1.47588 -17.3828 38.4422 9.77539 22.6253 8.89904 0.176512 50.0023 13.3583 19.2196 17.9847 -44.4593 -10.6363 8.8168 33.7228 -0.936401 -5.10401 9.57932 3.23812 1.08965 3.98797 6.75238 1.9318 12.5588 14.9018 -4.9874 -8.29164 0.0141141 -1.34803e-009 8.75207e-006 -1.4617e-008 
170.536 99.9066 9.74417 -5.92438 0.396545 -93.2218 -2.03063 4.06197 -7.19291 -2.22492 11.9703 -6.58859 4.51201 -8.39858 -0.142758 0.0462048 0.000530889 0.662642 4.87119 -11.6886 1.98624 -5.27987 30.1024 3.44967 1.04364 -6.15644 1.20007 -38.3299 8.72116 -15.9389 -37.7517 -49.991 -3.17915 -17.5423 38.334 9.87726 22.6223 8.81607 -0.263504 50.1318 13.4163 19.2601 18.2612 -44.3942 -9.22368 8.82259 33.9567 -0.469054 -5.07991 9.56253 3.76165 1.1835 3.99642 6.80483 1.92539 12.601 14.6406 -5.00172 -8.33755 0.0142965 -1.34803e-009 8.75207e-006 -1.4617e-008 
170.565 99.9062 9.78231 -5.77747 0.310324 -93.2061 -2.16823 3.82008 -7.25905 -2.19218 12.0908 -6.53047 4.51885 -8.4184 -0.142765 0.0462048 0.000530889 0.662642 4.78629 -11.7602 1.93215 -5.24191 30.0662 3.40043 1.24973 -5.92295 1.38485 -38.4915 8.78627 -16.0091 -39.0749 -49.4867 -5.34141 -17.5558 37.6793 9.52772 22.5383 8.74994 -0.635847 50.2495 13.4915 19.3348 18.5859 -44.2598 -7.50142 8.8258 33.7738 0.282188 -5.27417 9.54007 3.95955 1.06674 3.84824 6.67225 1.9262 12.5101 14.6639 -5.01012 -8.28132 0.0144378 -1.34803e-009 8.75207e-006 -1.4617e-008 
170.664 99.9056 9.83459 -5.49578 0.111823 -93.3907 -2.44815 3.22318 -7.27957 -2.20106 12.4672 -6.30631 4.55661 -8.49769 -0.142794 0.0462048 0.000530889 0.662642 4.70628 -11.7554 1.99768 -5.3205 29.8317 3.52575 1.48768 -5.82854 1.45206 -38.7329 8.88878 -16.1243 -40.2703 -48.7421 -7.46526 -17.4172 36.6596 8.33753 22.4303 8.84774 -0.14627 50.3525 13.5624 19.4082 18.9734 -44.0814 -5.58626 8.78901 33.4866 1.39208 -5.55155 9.5291 3.6648 0.784196 3.53324 6.43416 1.90664 12.4016 15.1394 -4.96605 -8.14637 0.0145191 -1.34803e-009 8.75207e-006 -1.4617e-008 
170.768 99.9049 9.87868 -5.31686 -0.0398381 -93.5751 -2.66439 2.77425 -7.27911 -2.21446 12.7689 -6.11647 4.56504 -8.55031 -0.142814 0.0462048 0.000530889 0.662642 4.74606 -11.5759 2.11889 -5.53737 29.4944 3.74543 1.50284 -5.67912 1.01183 -38.9541 9.00693 -16.2809 -41.315 -47.6565 -9.42876 -17.224 35.6703 6.34646 22.3906 9.05858 0.970965 50.4379 13.6126 19.4546 19.4548 -43.9917 -3.6197 8.59329 33.4013 2.91475 -5.56162 9.52971 3.63478 0.562407 3.29792 6.27105 1.88073 12.365 15.6134 -4.88288 -8.04281 0.0145251 -1.34803e-009 8.75207e-006 -1.4617e-008 
170.823 99.9035 9.91023 -5.35156 -0.0524413 -93.5464 -2.70661 2.7729 -7.31768 -2.20065 12.7804 -6.11099 4.53235 -8.52624 -0.142805 0.0462048 0.000530889 0.662642 4.93402 -11.3264 2.16425 -5.8378 29.2933 3.90154 1.37671 -5.16077 0.165166 -39.1 9.12177 -16.4626 -42.2038 -45.7002 -11.2961 -16.826 34.1453 3.72432 22.4838 9.16931 1.58254 50.57 13.6902 19.5255 19.9542 -43.9051 -1.65323 8.24287 33.3038 4.71605 -5.41623 9.5199 4.18078 0.525874 3.28194 6.24606 1.87951 12.393 15.66 -4.82151 -8.0307 0.0144383 -1.34803e-009 8.75207e-006 -1.4617e-008 
170.866 99.9012 9.94078 -5.45548 -0.0116641 -93.3753 -2.67147 2.93543 -7.36686 -2.17833 12.6767 -6.22991 4.51924 -8.47329 -0.142785 0.0462048 0.000530889 0.662642 5.16036 -11.0571 2.12703 -6.13152 29.1927 3.96776 1.4198 -4.34464 -0.580962 -39.205 9.23728 -16.6632 -42.6074 -42.0969 -12.9494 -16.1065 30.8356 0.567989 22.5993 9.08378 1.14806 50.7652 13.8151 19.6468 20.3941 -43.188 0.350509 7.86714 32.494 6.63469 -5.65427 9.48622 4.53355 0.569989 3.31674 6.26081 1.89765 12.459 15.4426 -4.79986 -8.06273 0.0142375 -1.34803e-009 8.75207e-006 -1.4617e-008 
170.934 99.8985 9.97538 -5.49187 -0.0173752 -93.308 -2.69548 2.9251 -7.3772 -2.17471 12.7063 -6.2803 4.54173 -8.45595 -0.142779 0.0462048 0.000530889 0.662642 5.28046 -10.7126 2.10794 -6.28966 29.014 4.00891 1.55736 -3.6875 -0.78158 -39.2905 9.32233 -16.8065 -42.1974 -36.3034 -14.0975 -15.1479 25.1231 -3.36632 22.4791 8.95041 0.413568 50.8471 13.8875 19.7308 20.8632 -41.6278 2.44813 7.5172 30.9431 8.53457 -6.22154 9.44746 4.31049 0.554549 3.26987 6.24028 1.89624 12.5247 15.3742 -4.77274 -8.07221 0.0139007 -1.34803e-009 8.75207e-006 -1.4617e-008 
